<?xml version="1.0" standalone="no"?>
<!DOCTYPE svg PUBLIC "-//W3C//DTD SVG 20010904//EN"
 "http://www.w3.org/TR/2001/REC-SVG-20010904/DTD/svg10.dtd">
<svg version="1.0" xmlns="http://www.w3.org/2000/svg"
 width="275.000000pt" height="183.000000pt" viewBox="0 0 275.000000 183.000000"
 preserveAspectRatio="xMidYMid meet">

<g transform="translate(0.000000,183.000000) scale(0.100000,-0.100000)"
fill="#000000" stroke="none">
<path d="M1295 1727 c-11 -7 -39 -19 -62 -25 -62 -18 -139 -84 -168 -143 -23
-49 -24 -57 -24 -285 0 -231 10 -295 23 -152 5 63 33 307 35 316 1 2 17 10 38
18 23 10 62 15 107 14 75 -3 136 7 136 21 0 5 7 6 15 3 9 -4 15 -1 15 7 0 8 5
6 14 -6 11 -16 28 -19 112 -20 152 -2 163 -12 168 -152 2 -32 6 -80 10 -108 8
-61 -9 -93 -43 -76 -11 6 -30 10 -43 10 -17 -1 -18 -3 -5 -6 20 -5 22 -19 5
-26 -10 -4 -10 -6 0 -6 6 -1 12 -4 12 -9 0 -4 -19 -6 -42 -3 -33 3 -38 6 -20
10 43 11 22 26 -31 23 -70 -5 -107 -25 -107 -58 0 -20 3 -24 13 -17 6 6 21 13
31 17 17 6 17 5 5 -11 -9 -12 -5 -10 14 4 26 20 31 21 44 8 17 -17 35 -19 49
-5 5 5 15 6 22 1 11 -6 10 -11 -3 -25 -20 -19 -15 -20 17 -3 14 7 23 18 20 25
-2 6 3 15 12 18 9 3 13 11 10 16 -4 6 4 4 17 -3 13 -7 31 -12 39 -11 10 1 11
0 2 -4 -10 -5 -10 -9 -1 -20 16 -19 7 -88 -19 -144 -29 -65 -42 -109 -42 -144
0 -104 -106 -234 -208 -256 -80 -17 -143 -5 -202 39 -43 32 -112 112 -107 123
1 2 -2 0 -8 -5 -13 -10 8 -42 81 -125 53 -58 67 -68 96 -69 30 -1 87 -14 175
-39 18 -5 32 3 67 37 76 77 91 87 104 73 7 -7 12 -32 12 -56 0 -44 19 -95 20
-53 0 11 4 26 9 34 7 11 12 8 26 -12 15 -24 15 -30 1 -87 -66 -258 -360 -371
-582 -224 -83 55 -134 147 -134 243 0 49 11 71 45 89 15 9 16 11 4 12 -9 0
-90 -32 -180 -71 -90 -39 -202 -85 -249 -104 -47 -18 -113 -47 -147 -64 -54
-27 -64 -37 -87 -84 -31 -66 -66 -155 -66 -167 0 -6 384 -10 1050 -10 578 0
1050 4 1050 8 0 20 -54 140 -81 179 -35 51 -63 66 -289 158 -91 37 -204 87
-252 112 -47 24 -95 43 -105 41 -15 -3 -19 6 -25 62 -4 40 -1 96 8 145 7 44
14 95 14 112 0 26 6 36 33 50 23 12 27 18 16 21 -12 2 -15 10 -11 24 3 14 1
19 -6 14 -15 -9 -15 -9 4 47 9 28 22 47 31 47 8 0 17 9 20 21 3 12 11 18 19
15 9 -3 17 6 22 27 10 37 5 48 -11 27 -7 -8 -20 -21 -30 -29 -16 -13 -17 -4
-12 175 7 222 -2 259 -67 300 -21 13 -38 30 -38 37 0 7 -6 21 -12 30 -12 16
-13 15 -15 -9 0 -14 -7 -31 -13 -38 -10 -8 -11 -8 -6 1 4 7 4 28 0 48 -5 28
-16 41 -57 66 -42 25 -66 32 -141 40 -119 11 -118 11 -141 -4z m234 -72 c17
-20 31 -40 31 -45 0 -16 -17 -11 -24 6 -5 13 -9 14 -21 4 -13 -11 -14 -10 -9
5 6 14 4 16 -6 10 -9 -5 -11 -4 -6 3 4 6 2 21 -4 32 -17 32 5 23 39 -15z
m-108 13 c8 -7 23 -23 33 -35 l19 -23 -39 19 c-22 11 -40 15 -42 10 -6 -16
-82 -11 -88 6 -4 10 -15 13 -33 10 l-26 -5 25 10 c22 10 42 9 135 -6 l30 -5
-25 15 c-14 9 -20 15 -14 16 5 0 17 -6 25 -12z m184 -7 c3 -5 0 -13 -6 -17 -7
-4 -9 -3 -5 4 3 5 0 13 -6 15 -9 4 -10 6 -1 6 6 1 14 -3 18 -8z m-260 -122 c4
-5 -1 -9 -9 -9 -9 0 -19 0 -23 -1 -4 0 -9 3 -10 8 -4 12 35 14 42 2z m-97 -8
c6 -1 12 -6 12 -12 0 -6 -7 -9 -15 -6 -8 4 -17 2 -20 -4 -8 -12 -25 -2 -25 16
0 7 8 12 18 10 9 -2 23 -4 30 -4z m-58 -27 c0 -2 -9 0 -20 6 -11 6 -20 13 -20
16 0 2 9 0 20 -6 11 -6 20 -13 20 -16z"/>
<path d="M1106 1114 c-6 -17 14 -24 37 -12 10 5 33 6 50 2 l32 -7 -35 -9 c-37
-10 -57 -24 -48 -34 3 -3 16 1 28 8 18 10 24 10 27 1 3 -7 16 -13 29 -13 14 0
23 4 19 9 -8 14 14 24 28 14 7 -5 24 -10 40 -12 40 -4 35 23 -9 44 -46 22
-191 28 -198 9z"/>
<path d="M1000 1101 c0 -6 4 -13 10 -16 6 -3 7 1 4 9 -7 18 -14 21 -14 7z"/>
<path d="M1755 948 c4 -13 12 -27 17 -33 6 -6 7 -4 3 8 -4 10 -2 17 5 17 7 0
6 5 -4 15 -21 21 -28 19 -21 -7z"/>
<path d="M1455 862 c-11 -3 -28 -10 -38 -17 -13 -9 -28 -10 -50 -4 -34 10 -50
3 -27 -11 14 -9 23 -10 83 -13 12 0 30 4 41 10 24 13 17 40 -9 35z"/>
<path d="M1352 733 c-125 -6 -90 -23 46 -23 120 0 172 11 112 24 -18 3 -42 5
-54 4 -11 -1 -58 -4 -104 -5z"/>
<path d="M1613 693 c-15 -5 -18 -43 -4 -43 9 0 26 39 19 44 -1 2 -9 1 -15 -1z"/>
<path d="M1389 657 c5 -5 19 -7 32 -5 20 3 19 5 -9 9 -20 3 -29 2 -23 -4z"/>
<path d="M1388 373 c7 -3 16 -2 19 1 4 3 -2 6 -13 5 -11 0 -14 -3 -6 -6z"/>
</g>
</svg>
